<svg id="Layer_1" data-name="Layer 1" xmlns="http://www.w3.org/2000/svg" viewBox="0 0 80.29 89.68"><defs><style>.cls-1{fill:#4794fc;}.cls-2{fill:#4794fc;stroke:#4794fc;stroke-miterlimit:10;stroke-width:4.79px;}</style></defs><title>CONVX0004_Icon_Buying</title><rect class="cls-1" x="22.63" y="50.03" width="35.04" height="8.76"/><rect class="cls-1" x="35.76" y="36.89" width="8.76" height="35.04"/><path class="cls-2" d="M76,26.6C69.85,21.92,44.35,4.11,43.26,3.35a5.85,5.85,0,0,0-6.4,0C35.78,4.1,10.33,21.79,4.22,26.6a4.81,4.81,0,0,0-1.83,3.78V80.81a6.5,6.5,0,0,0,6.47,6.48H71.42a6.49,6.49,0,0,0,6.47-6.48V30.48A4.87,4.87,0,0,0,76,26.6ZM74.31,80.81a2.89,2.89,0,0,1-2.89,2.89H8.86A2.88,2.88,0,0,1,6,80.82H6V30.42a1.24,1.24,0,0,1,.46-1c6-4.79,32.2-23,32.47-23.16a2.35,2.35,0,0,1,2.3,0c.27.19,26.52,18.52,32.6,23.18a1.27,1.27,0,0,1,.5,1Z" transform="translate(0.01 0)"/></svg>
