<svg data-name="Layer 1" xmlns="http://www.w3.org/2000/svg" viewBox="0 0 80.29 89.68"><path fill="#4794fc" d="M22.63 50.03h35.04v8.76H22.63z"/><path d="M76.01 26.6C69.86 21.92 44.36 4.11 43.27 3.35a5.85 5.85 0 00-6.4 0C35.79 4.1 10.34 21.79 4.23 26.6a4.81 4.81 0 00-1.83 3.78v50.43a6.5 6.5 0 006.47 6.48h62.56a6.49 6.49 0 006.47-6.48V30.48a4.87 4.87 0 00-1.89-3.88zm-1.69 54.21a2.89 2.89 0 01-2.89 2.89H8.87a2.88 2.88 0 01-2.86-2.88h0v-50.4a1.24 1.24 0 01.46-1c6-4.79 32.2-23 32.47-23.16a2.35 2.35 0 012.3 0c.27.19 26.52 18.52 32.6 23.18a1.27 1.27 0 01.5 1z" fill="#4794fc" stroke="#4794fc" stroke-miterlimit="10" stroke-width="4.79"/></svg>
