<?xml version="1.0" standalone="no"?>
<!DOCTYPE svg PUBLIC "-//W3C//DTD SVG 20010904//EN"
 "http://www.w3.org/TR/2001/REC-SVG-20010904/DTD/svg10.dtd">
<svg version="1.0" xmlns="http://www.w3.org/2000/svg"
 width="50px" height="3938.000000pt" viewBox="0 0 5906.000000 3938.000000"
 preserveAspectRatio="xMidYMid meet">

<g transform="translate(0.000000,3938.000000) scale(0.100000,-0.100000)"
fill="#ffffff" stroke="none">
<path d="M39770 30354 c-229 -24 -404 -72 -580 -157 -84 -41 -196 -114 -670
-437 -135 -92 -452 -308 -705 -480 -3356 -2286 -5777 -3973 -6865 -4783 -365
-272 -494 -407 -608 -632 -51 -103 -94 -227 -118 -340 -19 -88 -19 -256 -19
-6520 0 -6022 1 -6436 17 -6520 71 -373 235 -685 498 -945 275 -272 600 -432
1015 -502 l140 -23 8025 -3 c7083 -3 8036 -1 8115 12 50 8 124 20 165 27 119
18 250 55 374 105 539 216 943 691 1065 1255 38 176 41 282 41 1320 l0 1006
64 139 c35 76 153 333 261 569 108 237 232 507 275 600 43 94 92 202 110 240
29 63 166 363 470 1025 138 300 589 1286 625 1365 15 33 48 103 72 155 84 180
100 290 63 434 -48 190 -170 327 -355 401 -55 22 -91 29 -170 33 -151 7 -274
-31 -385 -119 -92 -72 -132 -137 -261 -419 -131 -284 -248 -539 -514 -1120
-92 -201 -229 -500 -305 -665 -220 -478 -465 -1014 -498 -1087 -17 -38 -35
-68 -40 -68 -5 0 -25 35 -44 78 -36 77 -421 917 -678 1477 -76 165 -274 597
-440 960 -166 363 -315 681 -332 707 -68 108 -208 209 -338 243 -71 19 -210
19 -280 0 -202 -54 -363 -213 -415 -411 -19 -73 -19 -213 -1 -284 8 -30 42
-116 76 -190 34 -74 137 -297 227 -495 91 -198 214 -466 273 -595 88 -192 255
-556 472 -1030 17 -36 65 -141 108 -235 43 -93 92 -201 110 -240 18 -38 155
-338 305 -665 150 -327 296 -646 324 -708 l52 -113 -3 -1022 c-3 -962 -4
-1025 -22 -1077 -62 -184 -196 -322 -379 -389 l-72 -26 -8065 -3 c-7171 -2
-8071 0 -8125 13 -219 55 -396 233 -440 443 -21 98 -22 12615 -2 12665 19 43
60 79 288 249 737 550 2059 1479 4279 3010 751 517 2235 1532 3435 2348 165
113 327 215 360 229 49 19 78 24 155 24 145 1 177 -13 400 -165 107 -74 359
-246 560 -383 658 -449 1811 -1239 2540 -1740 627 -431 915 -630 1755 -1210
1594 -1101 3225 -2253 3288 -2323 48 -53 46 72 47 -2707 0 -2882 -5 -2657 63
-2795 46 -94 159 -205 257 -252 103 -50 166 -62 296 -56 124 6 186 25 280 87
118 77 203 188 251 331 17 53 18 159 21 2675 2 1826 0 2652 -8 2727 -34 338
-192 657 -432 871 -237 210 -2297 1657 -5093 3577 -363 249 -694 476 -735 505
-94 65 -1269 869 -1695 1160 -176 120 -462 315 -635 434 -173 118 -355 236
-405 262 -163 85 -373 147 -575 168 -173 19 -180 19 -310 5z"/>
<path d="M23200 19594 c-200 -43 -369 -197 -438 -399 l-27 -80 0 -3180 c0
-3006 1 -3183 18 -3244 57 -208 222 -373 425 -426 84 -21 230 -21 312 0 168
43 315 163 388 315 22 47 45 112 51 144 15 84 15 6318 0 6402 -40 221 -238
421 -467 469 -89 18 -175 18 -262 -1z"/>
<path d="M17619 19070 c-71 -11 -181 -52 -239 -90 -108 -69 -210 -204 -252
-330 -21 -62 -22 -86 -26 -497 l-3 -433 -117 0 c-204 0 -323 -42 -438 -152
-253 -243 -186 -678 129 -831 94 -46 152 -57 302 -57 l124 0 4 -1567 c3 -1551
3 -1569 25 -1701 61 -376 178 -623 388 -820 184 -173 419 -277 744 -330 153
-24 573 -24 725 2 232 38 459 104 539 158 108 71 185 176 221 302 23 79 16
219 -14 295 -47 117 -137 213 -256 271 -109 54 -180 64 -309 44 -56 -8 -153
-15 -216 -15 -377 0 -585 167 -629 506 -9 66 -11 458 -9 1470 l3 1380 760 0
760 0 5 -1600 c6 -1740 3 -1641 61 -1867 96 -377 302 -646 614 -801 248 -124
541 -176 920 -164 252 8 419 35 644 104 157 47 244 105 321 215 64 91 90 173
90 283 0 182 -89 335 -251 433 -98 59 -207 77 -343 56 -119 -18 -297 -20 -384
-4 -246 44 -393 183 -449 425 -17 76 -18 154 -18 1500 l0 1420 525 5 c395 5
535 9 565 19 85 28 161 75 226 140 104 104 152 221 151 366 -2 222 -145 414
-362 488 -63 21 -84 22 -585 27 l-520 5 -6 440 c-6 478 -5 469 -67 589 -152
291 -508 403 -809 253 -125 -61 -239 -189 -293 -327 l-25 -65 -5 -445 -5 -445
-762 -3 -763 -2 0 413 c0 461 -5 503 -71 627 -115 215 -378 347 -620 310z"/>
<path d="M14080 17720 c-895 -82 -1638 -597 -2041 -1415 -198 -404 -283 -760
-296 -1240 -14 -538 79 -981 296 -1410 392 -775 1139 -1282 2047 -1390 167
-20 539 -20 717 0 483 53 900 210 1272 476 316 226 405 352 405 575 0 109 -21
186 -74 268 -109 169 -323 252 -519 201 -81 -21 -115 -41 -259 -148 -197 -148
-371 -242 -567 -307 -412 -138 -858 -129 -1231 22 -368 150 -650 452 -796 855
-36 97 -84 287 -84 330 l0 23 1698 2 1697 3 74 27 c189 69 323 217 367 404 20
86 14 382 -11 544 -77 494 -265 937 -555 1305 -89 112 -298 317 -412 402 -327
246 -678 390 -1103 454 -150 22 -479 32 -625 19z m428 -996 c487 -72 851 -399
1026 -924 34 -103 82 -315 88 -395 l3 -40 -1342 -3 -1343 -2 0 26 c0 49 42
230 81 350 230 707 805 1090 1487 988z"/>
<path d="M26498 17720 c-596 -54 -1118 -298 -1538 -719 -430 -431 -684 -961
-776 -1621 -25 -176 -25 -624 -1 -800 65 -462 203 -842 431 -1184 106 -159
186 -256 316 -386 422 -422 978 -680 1615 -750 142 -15 520 -13 678 5 537 59
1000 248 1403 573 128 103 184 165 228 252 121 242 28 537 -206 654 -87 44
-164 60 -258 53 -107 -7 -177 -37 -296 -128 -225 -172 -399 -268 -611 -339
-449 -149 -940 -126 -1318 62 -137 68 -244 146 -361 262 -170 170 -289 367
-364 601 -32 100 -69 254 -70 287 0 17 96 18 1698 20 1619 3 1700 4 1752 21
155 52 282 159 343 288 52 111 62 164 60 329 -7 663 -280 1345 -722 1803 -136
140 -240 228 -392 330 -287 191 -610 313 -975 367 -160 23 -485 34 -636 20z
m454 -999 c268 -46 471 -151 658 -340 181 -182 303 -405 380 -695 33 -125 64
-302 55 -316 -4 -6 -502 -10 -1346 -10 -1306 0 -1339 0 -1339 19 0 10 9 63 20
117 75 367 219 652 439 873 202 204 457 328 746 364 92 12 282 6 387 -12z"/>
<path d="M34547 17720 c-895 -81 -1650 -613 -2047 -1443 -126 -263 -204 -524
-255 -847 -22 -139 -32 -583 -16 -746 65 -674 332 -1253 777 -1685 404 -391
896 -626 1499 -716 169 -25 645 -25 825 1 432 60 787 190 1123 409 141 92 296
216 364 290 181 199 177 503 -7 687 -74 74 -160 116 -267 132 -154 22 -258
-10 -408 -127 -267 -207 -544 -339 -831 -395 -387 -75 -783 -30 -1089 122
-138 69 -244 147 -360 263 -209 209 -339 453 -409 769 -15 64 -24 121 -21 126
4 6 612 10 1668 10 1828 0 1735 -3 1867 62 89 43 204 159 248 250 59 121 73
253 52 488 -33 360 -121 682 -275 995 -93 191 -142 270 -261 430 -325 435
-794 741 -1329 865 -236 55 -608 82 -848 60z m454 -996 c259 -44 466 -151 649
-334 159 -159 277 -355 354 -593 38 -114 72 -267 83 -367 l6 -60 -1342 0
c-963 0 -1341 3 -1341 11 0 23 42 217 61 284 140 482 421 825 807 984 68 28
241 76 307 84 85 11 329 6 416 -9z"/>
<path d="M44195 17704 c-565 -55 -970 -231 -1281 -557 -282 -295 -423 -690
-400 -1127 18 -338 123 -596 333 -820 247 -262 603 -445 1223 -626 459 -135
710 -220 864 -293 181 -87 295 -186 350 -300 29 -62 31 -73 31 -181 -1 -132
-19 -198 -83 -289 -136 -199 -473 -305 -865 -271 -447 38 -862 182 -1280 444
-132 83 -173 101 -261 117 -125 21 -255 -6 -361 -77 -73 -48 -120 -103 -161
-189 -92 -192 -54 -425 93 -567 95 -91 500 -320 748 -421 300 -123 618 -205
965 -249 66 -8 207 -13 380 -12 231 0 298 4 415 22 828 129 1343 565 1487
1261 25 124 36 452 19 572 -38 255 -140 469 -313 654 -245 262 -602 454 -1212
651 -808 262 -979 336 -1137 493 -84 85 -115 140 -128 233 -33 239 118 448
384 531 124 39 227 50 403 44 302 -10 625 -97 987 -264 301 -140 292 -137 391
-141 50 -2 115 1 144 7 147 32 272 131 338 268 37 78 37 78 37 209 l0 131 -42
85 c-67 134 -131 188 -357 298 -368 180 -754 296 -1146 345 -120 15 -481 27
-565 19z"/>
<path d="M39264 17684 c-193 -18 -458 -62 -649 -109 -178 -44 -505 -150 -601
-196 -166 -79 -294 -277 -294 -456 0 -245 179 -453 428 -495 99 -17 190 -2
376 61 320 109 582 155 946 168 559 18 965 -122 1187 -412 74 -95 146 -248
178 -375 22 -85 28 -139 33 -278 4 -96 4 -179 0 -185 -4 -7 -40 -1 -110 21
-685 208 -1512 241 -2131 85 -414 -104 -717 -274 -957 -538 -300 -332 -427
-848 -339 -1374 118 -704 705 -1199 1544 -1302 236 -29 584 -11 835 43 394 84
810 320 1071 608 40 44 76 77 81 74 4 -3 8 -61 8 -130 0 -99 4 -137 21 -186
56 -167 198 -293 389 -344 89 -24 255 -24 335 0 189 56 336 195 398 375 l22
66 3 1390 c3 1400 0 1571 -33 1795 -111 745 -505 1272 -1142 1524 -185 73
-395 126 -643 162 -161 23 -747 28 -956 8z m901 -2868 c61 -9 148 -23 195 -32
200 -36 514 -129 531 -156 12 -19 11 -326 -1 -447 -44 -426 -335 -764 -797
-924 -309 -108 -672 -127 -973 -51 -118 30 -294 115 -377 183 -124 102 -217
250 -248 396 -19 92 -19 266 1 363 79 382 425 627 969 686 91 10 593 -3 700
-18z"/>
<path d="M9360 17654 c-19 -2 -84 -11 -145 -20 -618 -85 -1117 -410 -1353
-880 -188 -376 -212 -873 -58 -1250 142 -349 468 -624 971 -822 163 -64 251
-92 600 -197 606 -181 802 -260 971 -393 137 -107 194 -262 164 -441 -46 -272
-295 -443 -686 -470 -469 -33 -1008 118 -1499 419 -66 40 -145 86 -175 101
-138 68 -316 65 -454 -9 -107 -57 -206 -185 -237 -306 -6 -25 -15 -46 -20 -46
-5 0 -9 -36 -9 -80 0 -44 4 -80 9 -80 4 0 16 -29 26 -65 33 -123 93 -196 240
-293 444 -290 904 -472 1406 -556 349 -59 736 -62 1049 -10 429 71 774 236
1031 493 233 234 362 495 414 841 22 143 23 407 2 526 -79 441 -351 763 -857
1015 -232 115 -347 158 -870 329 -385 125 -564 191 -692 256 -171 86 -290 191
-345 302 -25 52 -28 67 -28 167 0 106 1 113 37 188 63 131 173 221 341 277
125 42 230 54 418 47 325 -11 657 -108 1104 -320 l170 -81 106 -4 c157 -6 263
29 366 122 105 95 155 211 155 361 -1 226 -106 370 -364 498 -380 188 -764
306 -1178 362 -110 15 -534 28 -610 19z"/>
</g>
</svg>
